{
    "asset" : {
        "generator" : "Khronos glTF Blender I/O v1.4.40",
        "version" : "2.0"
    },
    "scene" : 0,
    "scenes" : [
        {
            "name" : "Scene",
            "nodes" : [
                0
            ]
        }
    ],
    "nodes" : [
        {
            "mesh" : 0,
            "name" : "mal_kuvshin2_fix"
        }
    ],
    "materials" : [
        {
            "name" : "Material_MR.012",
            "normalTexture" : {
                "index" : 0,
                "scale" : 1.100000023841858,
                "texCoord" : 0
            },
            "occlusionTexture" : {
                "index" : 1,
                "texCoord" : 0
            },
            "pbrMetallicRoughness" : {
                "baseColorTexture" : {
                    "index" : 2,
                    "texCoord" : 0
                },
                "metallicRoughnessTexture" : {
                    "index" : 1,
                    "texCoord" : 0
                }
            }
        }
    ],
    "meshes" : [
        {
            "name" : "mal_kuvshin2_fix",
            "primitives" : [
                {
                    "attributes" : {
                        "POSITION" : 0,
                        "NORMAL" : 1,
                        "TEXCOORD_0" : 2
                    },
                    "indices" : 3,
                    "material" : 0
                }
            ]
        }
    ],
    "textures" : [
        {
            "sampler" : 0,
            "source" : 0
        },
        {
            "sampler" : 0,
            "source" : 1
        },
        {
            "sampler" : 0,
            "source" : 2
        }
    ],
    "images" : [
        {
            "bufferView" : 4,
            "mimeType" : "image/png",
            "name" : "009_mal_kuvh_gelt_norm3_512"
        },
        {
            "bufferView" : 5,
            "mimeType" : "image/png",
            "name" : "009_mal_kuvh_gelt_ao_r_m_256"
        },
        {
            "bufferView" : 6,
            "mimeType" : "image/png",
            "name" : "009_mal_kuvh_gelt_dif_4_1k"
        }
    ],
    "accessors" : [
        {
            "bufferView" : 0,
            "componentType" : 5126,
            "count" : 1052,
            "max" : [
                1.840522050857544,
                3.860405445098877,
                1.3072714805603027
            ],
            "min" : [
                -1.409729242324829,
                0.06782113760709763,
                -1.4706618785858154
            ],
            "type" : "VEC3"
        },
        {
            "bufferView" : 1,
            "componentType" : 5126,
            "count" : 1052,
            "type" : "VEC3"
        },
        {
            "bufferView" : 2,
            "componentType" : 5126,
            "count" : 1052,
            "type" : "VEC2"
        },
        {
            "bufferView" : 3,
            "componentType" : 5123,
            "count" : 5400,
            "type" : "SCALAR"
        }
    ],
    "bufferViews" : [
        {
            "buffer" : 0,
            "byteLength" : 12624,
            "byteOffset" : 0
        },
        {
            "buffer" : 0,
            "byteLength" : 12624,
            "byteOffset" : 12624
        },
        {
            "buffer" : 0,
            "byteLength" : 8416,
            "byteOffset" : 25248
        },
        {
            "buffer" : 0,
            "byteLength" : 10800,
            "byteOffset" : 33664
        },
        {
            "buffer" : 0,
            "byteLength" : 275052,
            "byteOffset" : 44464
        },
        {
            "buffer" : 0,
            "byteLength" : 99454,
            "byteOffset" : 319516
        },
        {
            "buffer" : 0,
            "byteLength" : 1057543,
            "byteOffset" : 418972
        }
    ],
    "samplers" : [
        {
            "magFilter" : 9729,
            "minFilter" : 9986
        }
    ],
    "buffers" : [
        {
            "byteLength" : 1476516,
            "uri" : "data:application/octet-stream;base64,"
        }
    ]
}
